<svg width="514" height="514" viewBox="0 0 514 514" fill="none" xmlns="http://www.w3.org/2000/svg">
<path fill-rule="evenodd" clip-rule="evenodd" d="M286.555 2.00902C232.376 14.893 146.035 97.7046 81.9999 198.17C38.0023 267.262 10.8321 333.846 2.62913 392.758C0.294695 409.625 0.489231 434.705 3.08305 447.097C10.5727 482.798 31.0963 504.091 65.1401 511.419C77.0068 514.025 99.2487 513.336 116.173 509.894C153.751 502.272 199.175 481.421 243.822 451.277C267.231 435.442 307.824 402.347 326.143 384.152L328.574 381.792L327.894 390.348C325.948 415.87 338.561 429.492 354.902 419.411C369.751 410.264 400.553 375.694 422.276 343.877C428.728 334.387 430.317 331.288 430.317 328.043C430.317 324.207 428.307 319.634 426.653 319.634C426.232 319.634 419.747 327.256 412.257 336.599C393.29 360.204 376.009 379.48 364.628 389.906C354.74 398.905 344.073 405.199 340.149 404.363C338.204 403.97 337.945 403.134 337.718 395.954C337.491 389.758 338.139 384.742 340.603 373.629C342.354 365.761 344.429 357.155 345.207 354.45C345.953 351.745 354.707 334.534 364.661 316.142C374.615 297.751 387.324 273.753 392.901 262.836C401.299 246.411 403.438 242.969 405.416 242.969C406.746 242.969 414.203 242.379 422.049 241.592C444.421 239.429 490.785 237.511 498.567 238.396C503.527 238.986 505.635 239.773 505.635 241.051C505.635 242.084 506.445 243.559 507.45 244.346C508.909 245.526 509.655 245.28 511.114 243.018C514.81 237.412 512.962 229.987 506.543 224.725C502.101 221.086 468.543 221.529 420.785 225.807L410.831 226.692L419.844 206.678C437.158 168.272 446.852 140.143 450.646 117.522C452.753 104.933 451.975 99.8683 447.663 97.5571C439.817 93.3772 429.928 108.081 409.307 154.502C402.822 169.058 393.031 191.974 387.551 205.35C382.072 218.775 377.468 229.987 377.338 230.282C377.176 230.577 371.178 231.659 363.948 232.642C339.436 236.085 323.743 239.183 322.22 240.855C320.177 243.166 321.247 249.214 324.197 252.165C326.143 254.083 327.472 254.181 334.508 252.804C343.489 251.034 370.011 247.297 370.335 247.739C370.465 247.887 368.098 254.378 365.147 262.098C354.934 288.752 345.434 316.142 339.663 335.567L333.924 354.991L324.457 364.236C277.411 410.412 214.965 452.9 161.598 474.979C115.622 494.06 73.5376 498.043 45.3947 485.995C24.7738 477.143 12.1614 457.62 10.8645 432.492C8.82186 393.151 24.3848 336.944 53.3706 278.917C96.3631 192.81 171.584 98.9832 236.915 50.0535C262.011 31.3176 280.783 22.0235 296.671 20.499C324.749 17.7944 331.006 39.1366 318.718 95.8851C314.957 113.293 310.872 126.964 300.367 157.305C291.418 183.172 290.607 188.384 294.142 197.531C297.319 205.792 298.324 204.416 305.879 181.549C324.586 124.899 333.957 76.7067 332.692 43.6115C331.914 22.8103 326.694 11.0081 315.476 4.56615C309.607 1.17303 295.309 -0.0563564 286.555 2.00902ZM439.525 123.669C437.969 129.915 430.382 152.142 425.583 164.485C419.65 179.828 399.645 225.217 397.797 227.528C397.051 228.462 395.171 229.053 393.647 228.807L390.826 228.364L403.049 199.055C418.839 161.092 429.182 138.176 434.986 128.292C437.547 123.915 439.817 120.375 440.011 120.375C440.206 120.375 439.979 121.85 439.525 123.669ZM388.167 248.231C386.935 251.575 368.779 284.768 368.13 284.768C367.871 284.768 368.227 283.391 368.973 281.67C369.719 279.949 373.318 271.147 376.982 262.148C383.012 247.198 383.855 245.772 386.319 245.772C388.621 245.772 388.913 246.116 388.167 248.231Z" fill="black" stroke="black"/>
</svg>
